<?xml version="1.0" standalone="no"?>
<!DOCTYPE svg PUBLIC "-//W3C//DTD SVG 20010904//EN"
 "http://www.w3.org/TR/2001/REC-SVG-20010904/DTD/svg10.dtd">
<svg version="1.0" xmlns="http://www.w3.org/2000/svg"
 width="260.000000pt" height="260.000000pt" viewBox="0 0 260.000000 260.000000"
 preserveAspectRatio="xMidYMid meet">
<metadata>
Created by potrace 1.14, written by Peter Selinger 2001-2017
</metadata>
<g transform="translate(0.000000,260.000000) scale(0.100000,-0.100000)"
fill="#000000" stroke="none">
<path d="M1180 2450 c-25 -12 -81 -57 -126 -100 -44 -44 -94 -84 -109 -90 -17
-7 -51 -8 -84 -4 -105 13 -177 7 -237 -20 -136 -62 -275 -220 -291 -330 -11
-79 -6 -110 42 -232 69 -173 62 -220 -51 -370 -95 -125 -109 -161 -101 -262 6
-88 21 -129 82 -223 54 -84 104 -132 183 -176 78 -44 108 -82 137 -178 54
-174 132 -244 349 -313 66 -21 102 -25 196 -26 134 -1 154 6 259 98 101 88
140 103 265 105 189 3 257 34 434 198 124 115 162 179 162 274 0 69 -19 120
-78 213 -58 91 -44 141 70 245 113 103 138 211 99 421 -37 199 -76 282 -149
319 -45 23 -73 29 -184 40 -110 11 -140 31 -193 133 -68 129 -154 192 -360
263 -111 39 -250 45 -315 15z"/>
</g>
</svg>
